<svg width="55" height="12" viewBox="0 0 55 12" fill="none" xmlns="http://www.w3.org/2000/svg">
<mask id="mask0_17502_37844" style="mask-type:luminance" maskUnits="userSpaceOnUse" x="0" y="0" width="55" height="12">
<path fill-rule="evenodd" clip-rule="evenodd" d="M0 0H54.099V12H0V0Z" fill="white"/>
</mask>
<g mask="url(#mask0_17502_37844)">
<path fill-rule="evenodd" clip-rule="evenodd" d="M0 3.5241C0 2.85783 0.734833 2.43697 1.31682 2.76133C4.9019 4.75938 15.1923 10 24.5 10C34.1435 9.61424 41.7038 6.25263 44.6556 4.73637C45.2549 4.42853 46 4.86456 46 5.53828C46 5.82674 45.8579 6.09421 45.6114 6.24411C43.7617 7.36919 35.4815 12 24.5 12C14.1904 12 2.67517 5.57044 0.401773 4.2394C0.146551 4.08997 0 3.81984 0 3.5241Z" fill="#FE5F02"/>
<path fill-rule="evenodd" clip-rule="evenodd" d="M48.556 4.16733C48.249 3.7083 48.3721 3.08723 48.8311 2.78013L52.1557 0.555936C52.6148 0.248838 53.2358 0.372005 53.5429 0.831036C53.85 1.29007 53.7269 1.91114 53.2678 2.21823L49.9432 4.44243C49.4842 4.74953 48.8631 4.62636 48.556 4.16733Z" fill="#FE5F02"/>
</g>
</svg>
